<?xml version="1.0" encoding="UTF-8"?>
<svg id="a" xmlns="http://www.w3.org/2000/svg" xmlns:xlink="http://www.w3.org/1999/xlink" viewBox="0 0 144 144">
  <defs>
    <style>
      .h {
        fill: #ba68c8;
      }

      .i {
        fill: url(#g);
      }

      .i, .j, .k {
        isolation: isolate;
      }

      .i, .k {
        opacity: .5;
      }

      .l {
        fill: url(#c);
      }

      .m {
        fill: url(#d);
      }

      .n {
        fill: url(#e);
      }

      .j {
        fill: #1a0a2e;
        opacity: .6;
      }

      .k {
        fill: url(#f);
      }
    </style>
    <linearGradient id="c" data-name="Безымянный градиент" x1="6" y1="372" x2="138" y2="504" gradientTransform="translate(0 -366)" gradientUnits="userSpaceOnUse">
      <stop offset="0" stop-color="#3d1a5f"/>
      <stop offset="1" stop-color="#1a0a2e"/>
    </linearGradient>
    <linearGradient id="d" data-name="Безымянный градиент 2" x1="-533.74" y1="322.12" x2="-532.74" y2="321.12" gradientTransform="translate(19243 25795) scale(36 -80)" gradientUnits="userSpaceOnUse">
      <stop offset="0" stop-color="#ce93d8"/>
      <stop offset="1" stop-color="#ba68c8"/>
    </linearGradient>
    <linearGradient id="e" data-name="Безымянный градиент 3" x1="-533.74" y1="322.12" x2="-532.74" y2="321.12" gradientTransform="translate(19295 25795) scale(36 -80)" gradientUnits="userSpaceOnUse">
      <stop offset="0" stop-color="#ce93d8"/>
      <stop offset="1" stop-color="#ba68c8"/>
    </linearGradient>
    <linearGradient id="f" data-name="Безымянный градиент 4" x1="-514.72" y1="294.72" x2="-513.72" y2="293.72" gradientTransform="translate(8273 4785) scale(16 -16)" gradientUnits="userSpaceOnUse">
      <stop offset="0" stop-color="#ce93d8"/>
      <stop offset="1" stop-color="#ba68c8"/>
    </linearGradient>
    <linearGradient id="g" data-name="Безымянный градиент 5" x1="-514.72" y1="294.72" x2="-513.72" y2="293.72" gradientTransform="translate(8325 4785) scale(16 -16)" gradientUnits="userSpaceOnUse">
      <stop offset="0" stop-color="#ce93d8"/>
      <stop offset="1" stop-color="#ba68c8"/>
    </linearGradient>
  </defs>
  <g id="b">
    <rect class="l" width="144" height="144" rx="35" ry="35"/>
    <rect class="m" x="28" y="24" width="36" height="80" rx="6" ry="6"/>
    <rect class="n" x="80" y="24" width="36" height="80" rx="6" ry="6"/>
    <circle class="j" cx="46" cy="46" r="8"/>
    <circle class="j" cx="46" cy="78" r="14"/>
    <circle class="k" cx="46" cy="78" r="8"/>
    <circle class="j" cx="98" cy="46" r="8"/>
    <circle class="j" cx="98" cy="78" r="14"/>
    <circle class="i" cx="98" cy="78" r="8"/>
    <path class="h" d="M72,108c-6.63,0-12,5.37-12,12s5.37,12,12,12,12-5.37,12-12-5.37-12-12-12ZM75.2,123.21h-.02v1.79h-6.73c.07-.67.29-1.31.66-1.92.36-.6,1.08-1.4,2.16-2.4.87-.81,1.4-1.35,1.59-1.64.26-.4.4-.79.4-1.18,0-.43-.12-.76-.34-.99-.23-.23-.55-.34-.95-.34s-.72.12-.96.36-.37.64-.41,1.2l-1.91-.19c.11-1.06.47-1.82,1.07-2.28s1.35-.69,2.26-.69c.99,0,1.77.27,2.33.8.57.53.85,1.2.85,1.99,0,.45-.08.88-.24,1.29-.16.41-.42.83-.77,1.28-.23.3-.65.72-1.26,1.28-.61.56-.99.92-1.15,1.11-.16.19-.29.36-.39.53h3.81Z"/>
  </g>
</svg>