<?xml version="1.0" encoding="UTF-8"?>
<svg id="a" data-name="mic_x5F_unmute" xmlns="http://www.w3.org/2000/svg" xmlns:xlink="http://www.w3.org/1999/xlink" viewBox="0 0 144 144">
  <defs>
    <style>
      .e {
        fill: url(#c);
      }

      .f {
        fill: url(#d);
      }

      .g {
        fill: url(#b);
      }
    </style>
    <linearGradient id="b" data-name="Безымянный градиент" x1="-181.73" y1="327.73" x2="-180.73" y2="326.73" gradientTransform="translate(26169 47193) scale(144 -144)" gradientUnits="userSpaceOnUse">
      <stop offset="0" stop-color="#1e3a5f"/>
      <stop offset="1" stop-color="#0d2137"/>
    </linearGradient>
    <linearGradient id="c" data-name="Безымянный градиент 2" x1="-178.42" y1="325.95" x2="-177.43" y2="324.95" gradientTransform="translate(7189 19581) scale(40 -60)" gradientUnits="userSpaceOnUse">
      <stop offset="0" stop-color="#4fc3f7"/>
      <stop offset="1" stop-color="#29b6f6"/>
    </linearGradient>
    <linearGradient id="d" data-name="Безымянный градиент 2" x1="69.07" y1="87.93" x2="80.8" y2="76.2" gradientTransform="matrix(1,0,0,1,0,0)" xlink:href="#c"/>
  </defs>
  <rect class="g" x="0" y="0" width="144" height="144" rx="35" ry="35"/>
  <path class="e" d="M72,24h0c11.05,0,20,8.95,20,20v20c0,11.05-8.95,20-20,20h0c-11.05,0-20-8.95-20-20v-20c0-11.05,8.95-20,20-20Z"/>
  <path class="f" d="M106,56.5c-1.93,0-3.5,1.57-3.5,3.5v14c0,16.82-13.68,30.5-30.5,30.5s-30.5-13.68-30.5-30.5v-14c0-1.93-1.57-3.5-3.5-3.5s-3.5,1.57-3.5,3.5v14c0,19.5,14.96,35.56,34,37.33v9.17h-16.5c-1.93,0-3.5,1.57-3.5,3.5s1.57,3.5,3.5,3.5h40c1.93,0,3.5-1.57,3.5-3.5s-1.57-3.5-3.5-3.5h-16.5v-9.17c19.04-1.77,34-17.83,34-37.33v-14c0-1.93-1.57-3.5-3.5-3.5Z"/>
</svg>