<?xml version="1.0" encoding="UTF-8"?>
<svg id="a" data-name="mic_x5F_device1" xmlns="http://www.w3.org/2000/svg" xmlns:xlink="http://www.w3.org/1999/xlink" viewBox="0 0 144 144">
  <defs>
    <style>
      .h {
        stroke: url(#d);
        stroke-width: 5px;
      }

      .h, .i {
        fill: none;
        stroke-linecap: round;
      }

      .i {
        stroke: url(#c);
        stroke-width: 8px;
      }

      .j {
        fill: url(#g);
      }

      .k {
        isolation: isolate;
      }

      .l {
        fill: url(#e);
      }

      .m {
        fill: url(#f);
      }

      .n {
        fill: url(#b);
      }

      .o {
        fill: #0d2137;
      }

      .p {
        fill: #4fc3f7;
      }
    </style>
    <linearGradient id="b" data-name="Безымянный градиент" x1="-181.73" y1="327.73" x2="-180.73" y2="326.73" gradientTransform="translate(26169 47193) scale(144 -144)" gradientUnits="userSpaceOnUse">
      <stop offset="0" stop-color="#1e3a5f"/>
      <stop offset="1" stop-color="#0d2137"/>
    </linearGradient>
    <linearGradient id="c" data-name="Безымянный градиент 2" x1="-180.92" y1="324.75" x2="-179.92" y2="323.75" gradientTransform="translate(15219 14319) scale(84 -44)" gradientUnits="userSpaceOnUse">
      <stop offset="0" stop-color="#4fc3f7"/>
      <stop offset="1" stop-color="#29b6f6"/>
    </linearGradient>
    <linearGradient id="d" data-name="Безымянный градиент 2" x1="-176.7" y1="319.67" x2="-175.7" y2="318.67" gradientTransform="translate(4983 6485) scale(28 -20)" xlink:href="#c"/>
    <linearGradient id="e" data-name="Безымянный градиент 2" x1="-173.85" y1="323.92" x2="-172.85" y2="322.92" gradientTransform="translate(3499 11723) scale(20 -36)" xlink:href="#c"/>
    <linearGradient id="f" data-name="Безымянный градиент 2" x1="-173.85" y1="323.92" x2="-172.85" y2="322.92" gradientTransform="translate(3579 11723) scale(20 -36)" xlink:href="#c"/>
    <linearGradient id="g" data-name="Безымянный градиент 2" x1="-168" y1="313.67" x2="-167" y2="312.67" gradientTransform="translate(2077 3867) scale(12 -12)" xlink:href="#c"/>
  </defs>
  <rect class="n" y="0" width="144" height="144" rx="35" ry="35"/>
  <path class="i" d="M30,70c0-24,18-44,42-44s42,20,42,44"/>
  <path class="h" d="M39,89c0,14,10,20,28,20"/>
  <rect class="l" x="22" y="62" width="20" height="36" rx="6" ry="6"/>
  <rect class="m" x="102" y="62" width="20" height="36" rx="6" ry="6"/>
  <circle class="j" cx="67" cy="109" r="6"/>
  <circle class="p" cx="108" cy="116" r="12"/>
  <g class="k">
    <path class="o" d="M109.62,121h-1.92v-7.24c-.7.66-1.53,1.14-2.48,1.46v-1.74c.5-.16,1.04-.48,1.63-.93.59-.46.99-.99,1.21-1.6h1.56v10.06Z"/>
  </g>
</svg>