<?xml version="1.0" encoding="UTF-8"?>
<svg id="a" data-name="ptt" xmlns="http://www.w3.org/2000/svg" xmlns:xlink="http://www.w3.org/1999/xlink" viewBox="0 0 144 144">
  <defs>
    <style>
      .e {
        fill: url(#c);
      }

      .f {
        fill: url(#d);
      }

      .g {
        fill: url(#b);
      }
    </style>
    <linearGradient id="b" data-name="Безымянный градиент 42" x1="-181.73" y1="327.73" x2="-180.73" y2="326.73" gradientTransform="translate(26169 47193) scale(144 -144)" gradientUnits="userSpaceOnUse">
      <stop offset="0" stop-color="#1a1a2e"/>
      <stop offset="1" stop-color="#16213e"/>
    </linearGradient>
    <linearGradient id="c" data-name="Безымянный градиент 41" x1="-177.28" y1="325.73" x2="-176.28" y2="324.73" gradientTransform="translate(5729 18269) scale(32 -56)" gradientUnits="userSpaceOnUse">
      <stop offset="0" stop-color="#4fc3f7"/>
      <stop offset="1" stop-color="#0288d1"/>
    </linearGradient>
    <linearGradient id="d" data-name="Безымянный градиент 41" x1="69.04" y1="86.96" x2="80.89" y2="75.11" gradientTransform="matrix(1,0,0,1,0,0)" xlink:href="#c"/>
  </defs>
  <rect class="g" x="0" y="0" width="144" height="144" rx="35" ry="35"/>
  <path class="e" d="M72,28h0c8.84,0,16,7.16,16,16v24c0,8.84-7.16,16-16,16h0c-8.84,0-16-7.16-16-16v-24c0-8.84,7.16-16,16-16Z"/>
  <path class="f" d="M100,57c-1.66,0-3,1.34-3,3v16c0,13.79-11.21,25-25,25s-25-11.21-25-25v-16c0-1.66-1.34-3-3-3s-3,1.34-3,3v16c0,16.08,12.31,29.34,28,30.85v10.15h-13c-1.66,0-3,1.34-3,3s1.34,3,3,3h32c1.66,0,3-1.34,3-3s-1.34-3-3-3h-13v-10.15c15.69-1.51,28-14.77,28-30.85v-16c0-1.66-1.34-3-3-3Z"/>
</svg>