<?xml version="1.0" encoding="UTF-8"?>
<svg id="a" data-name="ptt_x5F_off" xmlns="http://www.w3.org/2000/svg" xmlns:xlink="http://www.w3.org/1999/xlink" viewBox="0 0 144 144">
  <defs>
    <style>
      .f {
        fill: url(#c);
      }

      .g {
        fill: url(#d);
      }

      .h {
        fill: none;
        stroke: url(#e);
        stroke-linecap: round;
        stroke-width: 9px;
      }

      .i {
        fill: url(#b);
      }
    </style>
    <linearGradient id="b" data-name="Безымянный градиент 205" x1="-181.73" y1="327.73" x2="-180.73" y2="326.73" gradientTransform="translate(26169 47193) scale(144 -144)" gradientUnits="userSpaceOnUse">
      <stop offset="0" stop-color="#1a3a1a"/>
      <stop offset="1" stop-color="#002c37"/>
    </linearGradient>
    <linearGradient id="c" data-name="Безымянный градиент 209" x1="56" y1="52.5" x2="88" y2="52.5" gradientUnits="userSpaceOnUse">
      <stop offset="0" stop-color="#6f6" stop-opacity=".3"/>
      <stop offset="1" stop-color="#0c0" stop-opacity=".3"/>
    </linearGradient>
    <linearGradient id="d" data-name="Безымянный градиент 209" x1="41" y1="86.5" x2="103" y2="86.5" xlink:href="#c"/>
    <linearGradient id="e" data-name="Безымянный градиент 10" x1="-180.82" y1="326.82" x2="-179.82" y2="325.82" gradientTransform="translate(15219 27483) scale(84 -84)" gradientUnits="userSpaceOnUse">
      <stop offset="0" stop-color="#ff8a80"/>
      <stop offset="1" stop-color="#d32f2f"/>
    </linearGradient>
  </defs>
  <rect class="i" x="0" y="0" width="144" height="144" rx="35" ry="35"/>
  <path class="f" d="M72,24.5h0c8.84,0,16,7.16,16,16v24c0,8.84-7.16,16-16,16h0c-8.84,0-16-7.16-16-16v-24c0-8.84,7.16-16,16-16Z"/>
  <path class="g" d="M100,53.5c-1.66,0-3,1.34-3,3v16c0,13.79-11.21,25-25,25s-25-11.21-25-25v-16c0-1.66-1.34-3-3-3s-3,1.34-3,3v16c0,16.08,12.31,29.34,28,30.85v10.15h-13c-1.66,0-3,1.34-3,3s1.34,3,3,3h32c1.66,0,3-1.34,3-3s-1.34-3-3-3h-13v-10.15c15.69-1.51,28-14.77,28-30.85v-16c0-1.66-1.34-3-3-3Z"/>
  <line class="h" x1="30" y1="30" x2="114" y2="114"/>
</svg>