<?xml version="1.0" encoding="UTF-8"?>
<svg id="a" data-name="settings" xmlns="http://www.w3.org/2000/svg" xmlns:xlink="http://www.w3.org/1999/xlink" viewBox="0 0 144 144">
  <defs>
    <style>
      .l {
        fill: url(#k);
      }

      .m {
        fill: url(#d);
      }

      .n {
        fill: url(#h);
      }

      .o {
        fill: url(#j);
      }

      .p {
        fill: url(#g);
      }

      .q {
        fill: url(#e);
      }

      .r {
        fill: url(#i);
      }

      .s {
        fill: url(#f);
      }

      .t {
        fill: none;
        stroke: url(#c);
        stroke-width: 8px;
      }

      .u {
        fill: url(#b);
      }
    </style>
    <linearGradient id="b" data-name="Безымянный градиент 42" x1="-181.73" y1="327.73" x2="-180.73" y2="326.73" gradientTransform="translate(26169 47193) scale(144 -144)" gradientUnits="userSpaceOnUse">
      <stop offset="0" stop-color="#1a1a2e"/>
      <stop offset="1" stop-color="#16213e"/>
    </linearGradient>
    <linearGradient id="c" data-name="Безымянный градиент 41" x1="-178.42" y1="324.44" x2="-177.43" y2="323.44" gradientTransform="translate(7189 13029) scale(40 -40)" gradientUnits="userSpaceOnUse">
      <stop offset="0" stop-color="#4fc3f7"/>
      <stop offset="1" stop-color="#0288d1"/>
    </linearGradient>
    <linearGradient id="d" data-name="Безымянный градиент 41" x1="-160.12" y1="317.59" x2="-159.13" y2="316.59" gradientTransform="translate(1349 5181) scale(8 -16)" xlink:href="#c"/>
    <linearGradient id="e" data-name="Безымянный градиент 41" x1="-160.08" y1="317.58" x2="-159.08" y2="316.58" gradientTransform="translate(1374.1 5170.31) scale(8 -16)" xlink:href="#c"/>
    <linearGradient id="f" data-name="Безымянный градиент 41" x1="-160.06" y1="317.56" x2="-159.06" y2="316.56" gradientTransform="translate(5181 -1205) rotate(-90) scale(8 -16)" xlink:href="#c"/>
    <linearGradient id="g" data-name="Безымянный градиент 41" x1="-160.08" y1="317.54" x2="-159.08" y2="316.54" gradientTransform="translate(5170.1 -1230.6) rotate(-90) scale(8 -16)" xlink:href="#c"/>
    <linearGradient id="h" data-name="Безымянный градиент 41" x1="-160.12" y1="317.53" x2="-159.12" y2="316.53" gradientTransform="translate(-1205 -5037) rotate(-180) scale(8 -16)" xlink:href="#c"/>
    <linearGradient id="i" data-name="Безымянный градиент 41" x1="-160.17" y1="317.54" x2="-159.17" y2="316.54" gradientTransform="translate(-1230.81 -5026.6) rotate(-180) scale(8 -16)" xlink:href="#c"/>
    <linearGradient id="j" data-name="Безымянный градиент 41" x1="-160.19" y1="317.56" x2="-159.19" y2="316.56" gradientTransform="translate(-5037 1349) rotate(90) scale(8 -16)" xlink:href="#c"/>
    <linearGradient id="k" data-name="Безымянный градиент 41" x1="-160.17" y1="317.58" x2="-159.17" y2="316.58" gradientTransform="translate(-5026.81 1374.31) rotate(90) scale(8 -16)" xlink:href="#c"/>
  </defs>
  <rect class="u" x="0" y="0" width="144" height="144" rx="35" ry="35"/>
  <circle class="t" cx="72" cy="71.5" r="20"/>
  <rect class="m" x="68" y="99.5" width="8" height="16" rx="2" ry="2"/>
  <rect class="q" x="93.46" y="88.96" width="8" height="16" rx="2" ry="2" transform="translate(-40.01 97.31) rotate(-45)"/>
  <rect class="s" x="100" y="67.5" width="16" height="8" rx="2" ry="2"/>
  <rect class="p" x="89.46" y="42.04" width="16" height="8" rx="2" ry="2" transform="translate(-4.01 82.4) rotate(-45)"/>
  <rect class="n" x="68" y="27.5" width="8" height="16" rx="2" ry="2"/>
  <rect class="r" x="42.54" y="38.04" width="8" height="16" rx="2" ry="2" transform="translate(-18.93 46.4) rotate(-45)"/>
  <rect class="o" x="28" y="67.5" width="16" height="8" rx="2" ry="2"/>
  <rect class="l" x="38.54" y="92.96" width="16" height="8" rx="2" ry="2" transform="translate(-54.93 61.31) rotate(-45)"/>
</svg>