<?xml version="1.0" encoding="UTF-8"?>
<svg xmlns="http://www.w3.org/2000/svg" viewBox="0 0 144 144">
  <defs>
    <linearGradient id="bg" x1="0%" y1="0%" x2="100%" y2="100%">
      <stop offset="0%" stop-color="#1a1a2e"/>
      <stop offset="100%" stop-color="#16213e"/>
    </linearGradient>
    <linearGradient id="accent" x1="0%" y1="0%" x2="100%" y2="100%">
      <stop offset="0%" stop-color="#4fc3f7"/>
      <stop offset="100%" stop-color="#0288d1"/>
    </linearGradient>
  </defs>
  <rect fill="url(#bg)" width="144" height="144" rx="35" ry="35"/>
  <path fill="url(#accent)" d="M86,94c-.51,0-1.02-.2-1.41-.59-.78-.78-.78-2.05,0-2.83,7.29-7.3,7.29-29.88,0-37.17-.78-.78-.78-2.05,0-2.83.78-.78,2.05-.78,2.83,0,8.81,8.81,8.81,34.02,0,42.83-.39.39-.9.59-1.41.59Z"/>
  <rect fill="#2d2d2d" x="30" y="116" width="84" height="8" rx="4" ry="4"/>
  <rect fill="url(#accent)" x="30" y="116" width="42" height="8" rx="4" ry="4"/>
  <path fill="url(#accent)" opacity=".9" d="M34.71,59.09v25.72c0,1.57,1.29,2.86,2.86,2.86h15.72l20,15.72c1.07.86,2.64.64,3.5-.43.36-.43.5-1,.5-1.57v-58.87c0-1.36-1.07-2.43-2.43-2.43-.57,0-1.07.21-1.57.5l-20,15.65h-15.72c-1.57,0-2.86,1.29-2.86,2.86Z"/>
</svg>
