<?xml version="1.0" encoding="UTF-8"?>
<svg id="a" data-name="vol-up" xmlns="http://www.w3.org/2000/svg" xmlns:xlink="http://www.w3.org/1999/xlink" viewBox="0 0 144 144">
  <defs>
    <style>
      .e {
        fill: url(#c);
      }

      .f {
        fill: url(#d);
      }

      .g {
        fill: url(#b);
      }
    </style>
    <linearGradient id="b" data-name="Безымянный градиент" x1="-181.23" y1="327.73" x2="-181.23" y2="326.73" gradientTransform="translate(26169 47193) scale(144 -144)" gradientUnits="userSpaceOnUse">
      <stop offset="0" stop-color="#374151"/>
      <stop offset="1" stop-color="#111827"/>
    </linearGradient>
    <linearGradient id="c" data-name="Безымянный градиент 2" x1="31.19" y1="112.71" x2="103.33" y2="40.56" gradientUnits="userSpaceOnUse">
      <stop offset="0" stop-color="#4fc3f7"/>
      <stop offset="1" stop-color="#29b6f6"/>
    </linearGradient>
    <linearGradient id="d" data-name="Безымянный градиент 3" x1="-456.66" y1="317.16" x2="-456.42" y2="316.92" gradientTransform="translate(2845 15291) scale(6 -48)" gradientUnits="userSpaceOnUse">
      <stop offset="0" stop-color="#4fc3f7"/>
      <stop offset="1" stop-color="#29b6f6"/>
    </linearGradient>
  </defs>
  <rect class="g" width="144" height="144" rx="35" ry="35"/>
  <path class="e" d="M86.82,27.33c-.8,0-1.5.3-2.2.7l-28,21.9h-22c-2.2,0-4,1.8-4,4v36c0,2.2,1.8,4,4,4h22l28,22c1.5,1.2,3.7.9,4.9-.6.5-.6.7-1.4.7-2.2V30.73c0-1.9-1.5-3.4-3.4-3.4Z"/>
  <path class="f" d="M103.92,99.5c-.67,0-1.34-.19-1.94-.59-1.61-1.07-2.04-3.25-.97-4.85,7.28-10.93,7.28-33.19,0-44.12-1.07-1.61-.64-3.78.97-4.85s3.78-.64,4.85.97c8.73,13.09,8.73,38.79,0,51.88-.67,1.01-1.78,1.56-2.92,1.56h.01Z"/>
</svg>