<?xml version="1.0" encoding="UTF-8"?>
<svg id="a" xmlns="http://www.w3.org/2000/svg" xmlns:xlink="http://www.w3.org/1999/xlink" viewBox="0 0 144 144">
  <defs>
    <style>
      .g {
        fill: url(#f);
        isolation: isolate;
        opacity: .9;
      }

      .h {
        fill: #2d2d2d;
      }

      .i {
        fill: url(#c);
      }

      .j {
        fill: url(#d);
      }

      .k {
        fill: url(#e);
      }

      .l {
        fill: url(#b);
      }
    </style>
    <linearGradient id="b" data-name="Безымянный градиент" x1="-363.46" y1="2.54" x2="-362.46" y2="3.54" gradientTransform="translate(52338 -366) scale(144)" gradientUnits="userSpaceOnUse">
      <stop offset="0" stop-color="#1a1a2e"/>
      <stop offset="1" stop-color="#16213e"/>
    </linearGradient>
    <linearGradient id="c" data-name="Безымянный градиент 2" x1="-305.16" y1="9.53" x2="-304.85" y2="9.84" gradientTransform="translate(1918 -314) scale(6 40)" gradientUnits="userSpaceOnUse">
      <stop offset="0" stop-color="#4fc3f7"/>
      <stop offset="1" stop-color="#0288d1"/>
    </linearGradient>
    <linearGradient id="d" data-name="Безымянный градиент 3" x1="-331.15" y1="6.11" x2="-330.88" y2="6.38" gradientTransform="translate(3577 -326) scale(10.5 64)" gradientUnits="userSpaceOnUse">
      <stop offset="0" stop-color="#4fc3f7"/>
      <stop offset="1" stop-color="#0288d1"/>
    </linearGradient>
    <linearGradient id="e" data-name="Безымянный градиент 4" x1="-357.28" y1="45.76" x2="-356.28" y2="46.75" gradientTransform="translate(15036 -250) scale(42 8)" gradientUnits="userSpaceOnUse">
      <stop offset="0" stop-color="#4fc3f7"/>
      <stop offset="1" stop-color="#0288d1"/>
    </linearGradient>
    <linearGradient id="f" data-name="Безымянный градиент 5" x1="-359.7" y1="4.19" x2="-358.99" y2="4.91" gradientTransform="translate(21475.6 -338.45) scale(59.6 89.34)" gradientUnits="userSpaceOnUse">
      <stop offset="0" stop-color="#4fc3f7"/>
      <stop offset="1" stop-color="#0288d1"/>
    </linearGradient>
  </defs>
  <rect class="l" width="144" height="144" rx="35" ry="35"/>
  <path class="i" d="M86,94c-.51,0-1.02-.2-1.41-.59-.78-.78-.78-2.05,0-2.83,7.29-7.3,7.29-29.88,0-37.17-.78-.78-.78-2.05,0-2.83.78-.78,2.05-.78,2.83,0,8.81,8.81,8.81,34.02,0,42.83-.39.39-.9.59-1.41.59h0Z"/>
  <path class="j" d="M98,106c-.51,0-1.02-.2-1.41-.59-.78-.78-.78-2.05,0-2.83,13.15-13.15,13.15-48.02,0-61.17-.78-.78-.78-2.05,0-2.83.78-.78,2.05-.78,2.83,0,14.68,14.68,14.68,52.15,0,66.83-.39.39-.9.59-1.41.59h0Z"/>
  <path class="h" d="M34,116h76c2.21,0,4,1.79,4,4h0c0,2.21-1.79,4-4,4H34c-2.21,0-4-1.79-4-4h0c0-2.21,1.79-4,4-4Z"/>
  <path class="k" d="M34,116h34c2.21,0,4,1.79,4,4h0c0,2.21-1.79,4-4,4h-34c-2.21,0-4-1.79-4-4h0c0-2.21,1.79-4,4-4Z"/>
  <path class="g" d="M34.71,59.09v25.72c0,1.57,1.29,2.86,2.86,2.86h15.72l20,15.72c1.07.86,2.64.64,3.5-.43.36-.43.5-1,.5-1.57v-58.87c0-1.36-1.07-2.43-2.43-2.43-.57,0-1.07.21-1.57.5l-20,15.65h-15.72c-1.57,0-2.86,1.29-2.86,2.86h0Z"/>
</svg>